# xmcd
#
# Track frame offsets:
#	150
#	10438
#	22876
#	35855
#	46648
#	57332
#	67888
#	78982
#	89429
#	100396
#	112858
#	123493
#	135646
#	146764
#	156910
#	168600
#	179789
#	190758
#	201665
#	211514
#	222083
#	232921
#	242537
#	253087
#
# Disc length: 3516 seconds
#
# Revision: 1
# Processed by: cddbd v1.5.2PL0 Copyright (c) Steve Scherf et al.
# Submitted via: audiograbber 1.83.01
#
DISCID=540dba18
DTITLE=Smiley Lewis - Gumbo Blues
DYEAR=1950
DGENRE=Blues
TTITLE0=Tee-Nah-Nah
TTITLE1=Lowdown
TTITLE2=Slide Me Down
TTITLE3=Growing Old
TTITLE4=If You Ever Loved a Woman
TTITLE5=Dirty People
TTITLE6=Where Were You
TTITLE7=My Baby
TTITLE8=Sad Life
TTITLE9=Bee압 Boogie
TTITLE10=Don앖 Jive Me
TTITLE11=My Baby Was Right
TTITLE12=The Bells Are Ringing
TTITLE13=Lillie Mae
TTITLE14=Gypsy Blues
TTITLE15=Youre Not the One
TTITLE16=Gumbo Blues
TTITLE17=It압 So Peaceful
TTITLE18=Caldonia압 Party
TTITLE19=Oh Baby
TTITLE20=Big Mamou
TTITLE21=Playgirl
TTITLE22=Little Fernandez
TTITLE23=It압 Music
EXTD=
EXTT0=
EXTT1=
EXTT2=
EXTT3=
EXTT4=
EXTT5=
EXTT6=
EXTT7=
EXTT8=
EXTT9=
EXTT10=
EXTT11=
EXTT12=
EXTT13=
EXTT14=
EXTT15=
EXTT16=
EXTT17=
EXTT18=
EXTT19=
EXTT20=
EXTT21=
EXTT22=
EXTT23=
PLAYORDER=
